# xmcd
#
# Track frame offsets: 
#        150
#        5015
#        22777
#        34122
#        46372
#        60822
#        76535
#        89735
#        105885
#        116717
#        133385
#        142092
#        155525
#        171775
#        200402
#        211872
#        227322
#        229972
#        249035
#        269810
#        284360
#        303297
#        328927
#
# Disc length: 4696 seconds
#
# Revision: 0
# Processed by: cddbd v1.5.2PL0 Copyright (c) Steve Scherf et al.
# Submitted via: ExactAudioCopy v1.0b3
#
DISCID=35125617
DTITLE=Various Artist - Bread and Roses
DYEAR=1979
DGENRE=Country
TTITLE0=Mimi Farina - Intro
TTITLE1=Jesse Colin Young - Sugar Babe
TTITLE2=Dave Van Ronk - Swinging On Star
TTITLE3=Malvina Reynolds - Little Boxes
TTITLE4=Pete Seeger - Sailing Down My Golden River
TTITLE5=The John Herald Band - Rambling Jack Elliott
TTITLE6=Ramblin' Jack Elliott - San Francisco Bay Blues
TTITLE7=Hoyt Axton - Boney Fingers
TTITLE8=Hoyt Axton - Hoyt Axton Rap
TTITLE9=Hoyt Axton - Evangelina
TTITLE10=Arlo Guthrie - Al The Goose (Me And My Goose)
TTITLE11=Dan Hicks - I Got Mine
TTITLE12=The Persuasions - Another Night With The Boys
TTITLE13=Richie Havens - What About Me?
TTITLE14=Buffy Sainte-Marie - Universal Soldier
TTITLE15=Country Joe McDonald - Save The Whales!
TTITLE16=Committee Rap
TTITLE17=Joan Baez - There But For Fortune
TTITLE18=Toni Brown - Beginning Tomorrow
TTITLE19=Maria Muldaur - Walkin' One And Only
TTITLE20=Tom Paxton - Last Thing On My Mind
TTITLE21=Jackson Browne - For Everyman
TTITLE22=Just A Closer Walk With Thee
EXTD=
EXTT0=
EXTT1=
EXTT2=
EXTT3=
EXTT4=
EXTT5=
EXTT6=
EXTT7=
EXTT8=
EXTT9=
EXTT10=
EXTT11=
EXTT12=
EXTT13=
EXTT14=
EXTT15=
EXTT16=
EXTT17=
EXTT18=
EXTT19=
EXTT20=
EXTT21=
EXTT22=
PLAYORDER=
